<svg xmlns="http://www.w3.org/2000/svg" xmlns:xlink="http://www.w3.org/1999/xlink" width="500" zoomAndPan="magnify" viewBox="0 0 375 374.999991" height="500" preserveAspectRatio="xMidYMid meet" version="1.0"><path fill="#64ffda" d="M 187.492188 0 C 291.042969 0 374.984375 83.941406 374.984375 187.492188 C 374.984375 291.042969 291.035156 374.984375 187.492188 374.984375 C 166.273438 374.984375 145.886719 371.449219 126.875 364.960938 L 126.875 336.675781 C 145.585938 344.28125 166.050781 348.488281 187.492188 348.488281 C 276.402344 348.488281 348.488281 276.410156 348.488281 187.492188 C 348.488281 98.582031 276.40625 26.496094 187.492188 26.496094 C 98.582031 26.496094 26.496094 98.582031 26.496094 187.492188 C 26.496094 246.875 58.648438 298.742188 106.496094 326.652344 L 106.496094 356.628906 C 43.496094 326.402344 0 262.027344 0 187.492188 C 0 83.941406 83.941406 0 187.492188 0 Z M 187.492188 0 " fill-opacity="1" fill-rule="evenodd"/><path fill="#64ffda" d="M 80 116.367188 L 106.496094 116.367188 L 106.496094 335.253906 L 80 335.253906 Z M 80 116.367188 " fill-opacity="1" fill-rule="evenodd"/><path fill="#64ffda" d="M 126.875 69.5 L 153.371094 69.5 L 153.371094 212.023438 L 126.875 212.023438 Z M 126.875 69.5 " fill-opacity="1" fill-rule="evenodd"/><path fill="#64ffda" d="M 126.875 280.300781 L 153.371094 280.300781 L 153.371094 356.667969 L 126.875 356.667969 Z M 126.875 280.300781 " fill-opacity="1" fill-rule="evenodd"/><path fill="#64ffda" d="M 80 116.367188 L 106.496094 116.367188 L 106.496094 230.371094 L 197.714844 230.371094 C 221.78125 230.371094 241.472656 210.679688 241.472656 186.613281 C 241.472656 162.546875 221.78125 142.855469 197.714844 142.855469 L 173.742188 142.855469 L 173.742188 116.359375 L 197.714844 116.359375 C 236.359375 116.359375 267.96875 147.96875 267.96875 186.613281 C 267.96875 225.246094 236.359375 256.867188 197.714844 256.867188 L 80 256.867188 Z M 80 116.367188 " fill-opacity="1" fill-rule="evenodd"/><path fill="#64ffda" d="M 126.875 69.5 L 197.609375 69.5 C 261.859375 69.5 314.421875 122.066406 314.421875 186.320312 C 314.421875 250.570312 261.851562 303.140625 197.609375 303.140625 L 126.875 303.140625 L 126.875 276.644531 L 197.609375 276.644531 C 247.285156 276.644531 287.933594 235.996094 287.933594 186.320312 C 287.933594 136.644531 247.285156 95.996094 197.609375 95.996094 L 126.875 95.996094 Z M 126.875 69.5 " fill-opacity="1" fill-rule="evenodd"/></svg>